<svg xmlns="http://www.w3.org/2000/svg" width="846.788" height="886.685" viewBox="0 0 846.788 886.685">
  <g id="Group_111" data-name="Group 111" transform="translate(-178 -133.921)">
    <g id="Background_Simple" transform="translate(178 183.574)">
      <g id="Group_32" data-name="Group 32">
        <path id="Path_19" data-name="Path 19" d="M557.647,45.217S412.346.111,280.355,87.92,91.427,340.995,41.885,473.356c-49.543,132.545-4.437,263.057,106.11,318.7C258.727,847.7,323.428,755.638,471.5,744.732s189.668,9.058,305.945-82.078S899.64,368.17,790.572,222.869C681.319,77.568,557.647,45.217,557.647,45.217Z" transform="translate(-21.877 -33.634)" fill="#f3f2ed"/>
        <path id="Path_20" data-name="Path 20" d="M557.647,45.217S412.346.111,280.355,87.92,91.427,340.995,41.885,473.356c-49.543,132.545-4.437,263.057,106.11,318.7C258.727,847.7,323.428,755.638,471.5,744.732s189.668,9.058,305.945-82.078S899.64,368.17,790.572,222.869C681.319,77.568,557.647,45.217,557.647,45.217Z" transform="translate(-21.877 -33.634)" fill="#f3f2ed" opacity="0.7"/>
      </g>
    </g>
    <g id="Graphics" transform="translate(186.916 133.921)">
      <g id="Group_35" data-name="Group 35" opacity="0.13">
        <g id="Group_33" data-name="Group 33" transform="translate(0 148.747)">
          <path id="Path_21" data-name="Path 21" d="M268.7,496.922,240.97,393.4l-7.949,106.85a18.311,18.311,0,0,0,18.3,19.6h0A18.1,18.1,0,0,0,268.7,496.922Z" transform="translate(148.347 172.574)"/>
          <path id="Path_22" data-name="Path 22" d="M191.841,495.416l8.5-104.816-48.064,93.725a21.028,21.028,0,0,0,12.755,29.763h0C177.791,517.415,190.732,508.541,191.841,495.416Z" transform="translate(77.871 170.198)"/>
          <path id="Path_23" data-name="Path 23" d="M108.9,444.483C124.983,420.451,150.309,382,150.309,382L83.944,416.384A19.452,19.452,0,0,0,79.692,448h0A19.243,19.243,0,0,0,108.9,444.483Z" transform="translate(12.923 162.9)"/>
          <path id="Path_24" data-name="Path 24" d="M43.661,223.711c28.284,5.731,73.575,14.234,73.575,14.234L60.114,189.7a19.559,19.559,0,0,0-30.872,8.134h0A19.6,19.6,0,0,0,43.661,223.711Z" transform="translate(-25.545 -4.167)"/>
          <path id="Path_25" data-name="Path 25" d="M54.419,111.569c16.822,9.613,43.627,24.587,43.627,24.587l-26.065-42.7a12.988,12.988,0,0,0-21.259-1.294h0A12.918,12.918,0,0,0,54.419,111.569Z" transform="translate(-8.759 -87.238)"/>
          <path id="Path_26" data-name="Path 26" d="M76.63,368.924l66.92-41.224-78.381,6.47A18.737,18.737,0,0,0,49.27,359.5h0A18.8,18.8,0,0,0,76.63,368.924Z" transform="translate(-8.601 116.82)"/>
          <path id="Path_27" data-name="Path 27" d="M99.149,361.333a11.792,11.792,0,1,1,8.688,14.234A11.721,11.721,0,0,1,99.149,361.333Z" transform="translate(34.506 137.721)"/>
          <path id="Path_28" data-name="Path 28" d="M109.544,433.733a11.792,11.792,0,1,1,8.688,14.234A11.864,11.864,0,0,1,109.544,433.733Z" transform="translate(43.336 199.161)"/>
          <circle id="Ellipse_3" data-name="Ellipse 3" cx="21.814" cy="21.814" r="21.814" transform="translate(0 536.026)"/>
          <path id="Path_29" data-name="Path 29" d="M197.877,428.533a11.792,11.792,0,1,1,8.688,14.234A11.584,11.584,0,0,1,197.877,428.533Z" transform="translate(118.236 194.748)"/>
          <path id="Path_30" data-name="Path 30" d="M36.746,312.386a17.71,17.71,0,1,1,12.94,21.444A17.777,17.777,0,0,1,36.746,312.386Z" transform="translate(-18.63 92.389)"/>
        </g>
        <g id="Group_34" data-name="Group 34" transform="translate(44.854)">
          <path id="Path_31" data-name="Path 31" d="M101.536,99.689,196,150.156,123.535,71.405a18.188,18.188,0,0,0-26.8,0h0C88.6,79.909,91,94.143,101.536,99.689Z" transform="translate(-16.248 43.072)"/>
          <path id="Path_32" data-name="Path 32" d="M178.324,61.724l79.49,68.768L210.674,36.4a20.9,20.9,0,0,0-31.426-7.21h0A21.052,21.052,0,0,0,178.324,61.724Z" transform="translate(50.971 8.57)"/>
          <path id="Path_33" data-name="Path 33" d="M256.141,32.887c9.8,27.175,25.881,70.247,25.881,70.247L293.668,29.19c2.034-13.31-9.8-24.771-22.923-22h0A19.345,19.345,0,0,0,256.141,32.887Z" transform="translate(122.152 -6.774)"/>
          <path id="Path_34" data-name="Path 34" d="M447.493,103.463C436.032,129.9,418.1,172.416,418.1,172.416l59.156-45.661a19.37,19.37,0,0,0-1.479-31.8h0A19.242,19.242,0,0,0,447.493,103.463Z" transform="translate(260.592 65.363)"/>
          <path id="Path_35" data-name="Path 35" d="M315.128,72.632,305.7,150.643l43.442-65.256A18.746,18.746,0,0,0,339.16,57.1h0A18.5,18.5,0,0,0,315.128,72.632Z" transform="translate(165.208 35.19)"/>
          <path id="Path_36" data-name="Path 36" d="M293.014,71.75a11.783,11.783,0,1,1-13.865-9.243A11.805,11.805,0,0,1,293.014,71.75Z" transform="translate(134.636 40.324)"/>
          <path id="Path_37" data-name="Path 37" d="M198.191,119.681a11.811,11.811,0,1,1-16.638-1.479A11.594,11.594,0,0,1,198.191,119.681Z" transform="translate(56.245 85.377)"/>
          <path id="Path_38" data-name="Path 38" d="M94.288,148.793a21.861,21.861,0,1,1-25.7-17.192A21.863,21.863,0,0,1,94.288,148.793Z" transform="translate(-50.964 98.784)"/>
          <path id="Path_39" data-name="Path 39" d="M175.214,52.853A11.783,11.783,0,1,1,161.35,43.61,11.805,11.805,0,0,1,175.214,52.853Z" transform="translate(34.67 24.282)"/>
          <path id="Path_40" data-name="Path 40" d="M375.794,39.574a17.786,17.786,0,1,1-24.956-3.143A17.888,17.888,0,0,1,375.794,39.574Z" transform="translate(197.712 15.193)"/>
        </g>
      </g>
    </g>
    <g id="Shopping_Cart_00000073704796207364784080000013232276850478793114_" transform="translate(449.778 453.41)">
      <g id="Group_76" data-name="Group 76">
        <g id="Group_41" data-name="Group 41" transform="translate(0.086 39.913)">
          <g id="Group_36" data-name="Group 36" transform="translate(0 27.143)">
            <path id="Path_41" data-name="Path 41" d="M175.705,467.7a2.981,2.981,0,0,0,1.294-.739L456.694,255.3,636.934,225.9a5.046,5.046,0,1,0-1.479-9.983L453.921,245.5a8,8,0,0,0-2.218.924L170.9,458.829a5,5,0,0,0-.924,7.025A5.279,5.279,0,0,0,175.705,467.7Z" transform="translate(-168.941 -215.875)" fill="#bfbfbf" stroke="#263238" stroke-linecap="round" stroke-linejoin="round" stroke-width="1"/>
          </g>
          <g id="Group_37" data-name="Group 37" transform="translate(276.978)">
            <path id="Path_42" data-name="Path 42" d="M347.848,460.2a2.5,2.5,0,0,0,1.664-2.773L324,233.742a17.919,17.919,0,0,1,7.949-17.377L348.4,205.828a2.538,2.538,0,1,0-2.773-4.252l-16.453,10.537a22.777,22.777,0,0,0-10.167,22.368L344.52,458.164a2.482,2.482,0,0,0,2.773,2.218A.679.679,0,0,1,347.848,460.2Z" transform="translate(-318.771 -201.192)" fill="#bfbfbf" stroke="#263238" stroke-linecap="round" stroke-linejoin="round" stroke-width="1"/>
          </g>
          <g id="Group_40" data-name="Group 40" transform="translate(39.633 45.121)">
            <g id="Group_38" data-name="Group 38" transform="translate(0 51.761)">
              <path id="Path_43" data-name="Path 43" d="M193.745,472.291c.185-.185.555-.185.739-.37L439.98,279.85l182.273-21.074a2.595,2.595,0,0,0-.37-5.176L438.87,274.674a2.459,2.459,0,0,0-1.479.555L191.341,467.854a2.419,2.419,0,0,0-.37,3.512A2.655,2.655,0,0,0,193.745,472.291Z" transform="translate(-190.38 -253.6)" fill="#bfbfbf" stroke="#263238" stroke-linecap="round" stroke-linejoin="round" stroke-width="1"/>
            </g>
            <g id="Group_39" data-name="Group 39" transform="translate(42.888 134.394)">
              <path id="Path_44" data-name="Path 44" d="M216.945,487.043c.185-.185.555-.185.739-.37L428.8,310.871l180.424-7.394a2.541,2.541,0,0,0,2.4-2.773,2.652,2.652,0,0,0-2.773-2.4L427.5,305.694a2.459,2.459,0,0,0-1.479.555L214.541,482.607a2.419,2.419,0,0,0-.37,3.512A2.291,2.291,0,0,0,216.945,487.043Z" transform="translate(-213.58 -298.3)" fill="#bfbfbf" stroke="#263238" stroke-linecap="round" stroke-linejoin="round" stroke-width="1"/>
            </g>
            <path id="Path_45" data-name="Path 45" d="M393.6,226.339l4.991-.739,22.183,207.229a2.756,2.756,0,0,1-1.664,2.773c-.185,0-.37.185-.555.185a2.39,2.39,0,0,1-2.773-2.218Z" transform="translate(-17.925 -225.6)" fill="#bfbfbf" stroke="#263238" stroke-linecap="round" stroke-linejoin="round" stroke-width="1"/>
            <path id="Path_46" data-name="Path 46" d="M364,231.139l4.991-.739,17.747,199.465a2.756,2.756,0,0,1-1.664,2.773c-.185,0-.37.185-.555.185a2.39,2.39,0,0,1-2.773-2.218Z" transform="translate(-43.044 -221.527)" fill="#bfbfbf" stroke="#263238" stroke-linecap="round" stroke-linejoin="round" stroke-width="1"/>
            <path id="Path_47" data-name="Path 47" d="M339.2,235.139l4.991-.739,17.192,194.1a2.757,2.757,0,0,1-1.664,2.773c-.185,0-.37.185-.555.185a2.389,2.389,0,0,1-2.773-2.218Z" transform="translate(-64.089 -218.132)" fill="#bfbfbf" stroke="#263238" stroke-linecap="round" stroke-linejoin="round" stroke-width="1"/>
            <path id="Path_48" data-name="Path 48" d="M230.967,309.4h0l87.07,140.494a2.631,2.631,0,0,1-.739,3.512.679.679,0,0,1-.555.185,2.631,2.631,0,0,1-2.958-.924L226.9,312.358Z" transform="translate(-159.388 -154.486)" fill="#bfbfbf" stroke="#263238" stroke-linecap="round" stroke-linejoin="round" stroke-width="1"/>
            <path id="Path_49" data-name="Path 49" d="M253.382,292.4c.185.185.555.37.739.739l76.717,145.3a2.481,2.481,0,0,1-.924,3.512c-.185,0-.185.185-.37.185a2.722,2.722,0,0,1-3.143-1.109l-76.717-145.3c0-.185-.185-.185-.185-.37Z" transform="translate(-140.21 -168.913)" fill="#bfbfbf" stroke="#263238" stroke-linecap="round" stroke-linejoin="round" stroke-width="1"/>
            <path id="Path_50" data-name="Path 50" d="M204.552,329.5h0L302.9,463.339a2.427,2.427,0,0,1-.555,3.512.96.96,0,0,1-.739.37,2.718,2.718,0,0,1-2.958-.924L200.3,332.458h0Z" transform="translate(-181.962 -137.429)" fill="#bfbfbf" stroke="#263238" stroke-linecap="round" stroke-linejoin="round" stroke-width="1"/>
            <path id="Path_51" data-name="Path 51" d="M273.5,277.1a2.552,2.552,0,0,1,.555.739l69.693,150.847a2.6,2.6,0,0,1-1.109,3.327.181.181,0,0,0-.185.185,2.643,2.643,0,0,1-3.143-1.294L269.8,280.058Z" transform="translate(-122.983 -181.897)" fill="#bfbfbf" stroke="#263238" stroke-linecap="round" stroke-linejoin="round" stroke-width="1"/>
            <path id="Path_52" data-name="Path 52" d="M293.867,261.8l62.3,156.023a2.594,2.594,0,0,1-1.479,3.327h0a2.333,2.333,0,0,1-3.143-1.479L289.8,264.943Z" transform="translate(-106.011 -194.88)" fill="#bfbfbf" stroke="#263238" stroke-linecap="round" stroke-linejoin="round" stroke-width="1"/>
          </g>
        </g>
        <g id="Group_46" data-name="Group 46" transform="translate(118.163 288.936)">
          <g id="Group_42" data-name="Group 42">
            <path id="Path_53" data-name="Path 53" d="M237.409,489.52c.37-.185.555-.37.924-.555L419.128,348.471l175.8-5.731a3.421,3.421,0,0,0-.185-6.84l-176.912,5.731a2.78,2.78,0,0,0-2.033.739L234.082,483.6a3.476,3.476,0,0,0-.555,4.806A3.852,3.852,0,0,0,237.409,489.52Z" transform="translate(-232.814 -335.9)" fill="#bfbfbf" stroke="#263238" stroke-linecap="round" stroke-linejoin="round" stroke-width="1"/>
          </g>
          <g id="Group_43" data-name="Group 43" transform="translate(121.084 1.32)">
            <path id="Path_54" data-name="Path 54" d="M302.725,494.459c.37-.185.554-.37.924-.555L500.711,342.688a3.421,3.421,0,0,0-4.252-5.361L299.582,488.544a3.475,3.475,0,0,0-.554,4.806A3.546,3.546,0,0,0,302.725,494.459Z" transform="translate(-298.314 -336.614)" fill="#bfbfbf" stroke="#263238" stroke-linecap="round" stroke-linejoin="round" stroke-width="1"/>
          </g>
          <g id="Group_44" data-name="Group 44" transform="translate(73.575 2.245)">
            <path id="Path_55" data-name="Path 55" d="M277.209,492.741a4.044,4.044,0,0,0,.924-.555l185.231-149a3.421,3.421,0,0,0-4.252-5.361l-185.231,149a3.475,3.475,0,0,0-.555,4.806A3.745,3.745,0,0,0,277.209,492.741Z" transform="translate(-272.614 -337.114)" fill="#bfbfbf" stroke="#263238" stroke-linecap="round" stroke-linejoin="round" stroke-width="1"/>
          </g>
          <g id="Group_45" data-name="Group 45" transform="translate(32.905 4.648)">
            <path id="Path_56" data-name="Path 56" d="M255.209,488.125a4.043,4.043,0,0,0,.924-.555L436.188,344.488a3.421,3.421,0,0,0-4.252-5.361L251.882,482.21a3.476,3.476,0,0,0-.555,4.806A3.306,3.306,0,0,0,255.209,488.125Z" transform="translate(-250.614 -338.414)" fill="#bfbfbf" stroke="#263238" stroke-linecap="round" stroke-linejoin="round" stroke-width="1"/>
          </g>
        </g>
        <g id="Group_56" data-name="Group 56" transform="translate(213.414 317.935)">
          <g id="Group_48" data-name="Group 48" transform="translate(139.866 196.716)">
            <g id="Group_47" data-name="Group 47" transform="translate(14.168 7.692)">
              <path id="Path_57" data-name="Path 57" d="M368.1,481.089c-2.218,12.016,4.252,23.293,14.419,25.141s20.15-6.47,22.183-18.671c2.218-12.016-4.252-23.292-14.419-25.141S370.134,468.888,368.1,481.089Z" transform="translate(-367.664 -462.161)" fill="#263238" stroke="#263238" stroke-linecap="round" stroke-linejoin="round" stroke-width="1"/>
              <path id="Path_58" data-name="Path 58" d="M372.514,479.447c-1.294,7.394,2.588,14.234,8.873,15.343,6.1,1.109,12.2-3.882,13.495-11.277s-2.588-14.234-8.873-15.343C379.908,467.062,373.808,472.053,372.514,479.447Z" transform="translate(-363.759 -457.192)" fill="#fff" stroke="#263238" stroke-linecap="round" stroke-linejoin="round" stroke-width="1"/>
            </g>
            <path id="Path_59" data-name="Path 59" d="M384.4,458l15.713,25.881a7.526,7.526,0,0,1-.37,8.5h0a7.449,7.449,0,0,1-9.613,2.033L360,478.15Z" transform="translate(-360 -458)" fill="#fff" stroke="#263238" stroke-linecap="round" stroke-linejoin="round" stroke-width="1"/>
          </g>
          <g id="Group_50" data-name="Group 50" transform="translate(15.639 186.179)">
            <g id="Group_49" data-name="Group 49" transform="translate(10.474 4.633)">
              <ellipse id="Ellipse_4" data-name="Ellipse 4" cx="22.183" cy="18.671" rx="22.183" ry="18.671" transform="translate(0 43.679) rotate(-79.909)" fill="#263238" stroke="#263238" stroke-linecap="round" stroke-linejoin="round" stroke-width="1"/>
              <path id="Path_60" data-name="Path 60" d="M305.314,473.747c-1.294,7.394,2.588,14.234,8.873,15.343,6.1,1.109,12.2-3.882,13.495-11.276s-2.588-14.234-8.873-15.344S306.608,466.353,305.314,473.747Z" transform="translate(-292.865 -448.432)" fill="#fff" stroke="#263238" stroke-linecap="round" stroke-linejoin="round" stroke-width="1"/>
            </g>
            <path id="Path_61" data-name="Path 61" d="M317.2,452.3l15.713,25.881a7.526,7.526,0,0,1-.37,8.5h0a7.45,7.45,0,0,1-9.613,2.033L292.8,472.45Z" transform="translate(-292.8 -452.3)" fill="#fff" stroke="#263238" stroke-linecap="round" stroke-linejoin="round" stroke-width="1"/>
          </g>
          <g id="Group_52" data-name="Group 52" transform="translate(143.193 91.531)">
            <g id="Group_51" data-name="Group 51" transform="translate(10.555 4.761)">
              <ellipse id="Ellipse_5" data-name="Ellipse 5" cx="22.183" cy="18.671" rx="22.183" ry="18.671" transform="translate(0 43.679) rotate(-79.909)" fill="#263238" stroke="#263238" stroke-linecap="round" stroke-linejoin="round" stroke-width="1"/>
              <path id="Path_62" data-name="Path 62" d="M374.314,422.547c-1.294,7.394,2.588,14.234,8.873,15.343,6.1,1.109,12.2-3.882,13.495-11.277s-2.588-14.234-8.873-15.343S375.608,415.153,374.314,422.547Z" transform="translate(-361.946 -397.361)" fill="#fff" stroke="#263238" stroke-linecap="round" stroke-linejoin="round" stroke-width="1"/>
            </g>
            <path id="Path_63" data-name="Path 63" d="M386.2,401.1l15.713,25.881a7.526,7.526,0,0,1-.37,8.5h0a7.449,7.449,0,0,1-9.613,2.033L361.8,421.25Z" transform="translate(-361.8 -401.1)" fill="#fff" stroke="#263238" stroke-linecap="round" stroke-linejoin="round" stroke-width="1"/>
          </g>
          <g id="Group_54" data-name="Group 54" transform="translate(270.193 93.749)">
            <g id="Group_53" data-name="Group 53" transform="translate(10.578 4.755)">
              <ellipse id="Ellipse_6" data-name="Ellipse 6" cx="22.183" cy="18.671" rx="22.183" ry="18.671" transform="translate(0 43.679) rotate(-79.909)" fill="#263238" stroke="#263238" stroke-linecap="round" stroke-linejoin="round" stroke-width="1"/>
              <path id="Path_64" data-name="Path 64" d="M443.014,423.747c-1.294,7.394,2.588,14.234,8.873,15.343,6.1,1.109,12.2-3.882,13.495-11.277s-2.588-14.234-8.873-15.343S444.308,416.353,443.014,423.747Z" transform="translate(-430.669 -398.555)" fill="#fff" stroke="#263238" stroke-linecap="round" stroke-linejoin="round" stroke-width="1"/>
            </g>
            <path id="Path_65" data-name="Path 65" d="M454.9,402.3l15.713,25.881a7.526,7.526,0,0,1-.37,8.5h0a7.449,7.449,0,0,1-9.613,2.034L430.5,422.45Z" transform="translate(-430.5 -402.3)" fill="#fff" stroke="#263238" stroke-linecap="round" stroke-linejoin="round" stroke-width="1"/>
          </g>
          <g id="Group_55" data-name="Group 55">
            <path id="Path_66" data-name="Path 66" d="M409.972,580.469a40.358,40.358,0,0,0,9.613-5.176L591.875,441.084a20.87,20.87,0,0,0,8.134-15.343,21.31,21.31,0,0,0-7.579-17.562L525.88,352.72a5.275,5.275,0,0,0-6.285-.185L398.325,441.454a5.029,5.029,0,0,0,5.916,8.134l53.979-39.56c0,.185.185.185.185.37l1.109,1.664a14.125,14.125,0,0,1,1.294,12.755,14.921,14.921,0,0,1-4.621,6.1L287.779,555.7a8.557,8.557,0,0,0-3.143,9.058,8.72,8.72,0,0,0,7.21,6.285l102.783,11.277A32.919,32.919,0,0,0,409.972,580.469ZM521.258,362.518l64.7,53.425A10.163,10.163,0,0,1,589.842,425a10.436,10.436,0,0,1-4.252,7.949L413.3,567.159a24.052,24.052,0,0,1-17.562,4.991l-98.716-10.722L462.1,439.051a22.981,22.981,0,0,0,8.134-10.537A25,25,0,0,0,468.2,405.96l-1.109-1.664c-.185-.185-.37-.555-.555-.74Z" transform="translate(-284.34 -351.587)" fill="#fff" stroke="#263238" stroke-linecap="round" stroke-linejoin="round" stroke-width="1"/>
          </g>
          <path id="Path_67" data-name="Path 67" d="M379.694,388.3,378.4,386.27l8.319-6.47,1.664,2.4a27.7,27.7,0,0,1,3.327,9.982l-10.722,8.689A13.744,13.744,0,0,0,379.694,388.3Z" transform="translate(-204.52 -327.645)" fill="#263238" stroke="#263238" stroke-linecap="round" stroke-linejoin="round" stroke-width="1"/>
        </g>
        <g id="Group_57" data-name="Group 57" transform="translate(303.655)">
          <path id="Path_68" data-name="Path 68" d="M518.839,201.043c4.806-1.664,7.579-7.025,6.47-12.386-1.294-5.916-6.84-9.982-12.57-8.873L341.372,213.429a10.447,10.447,0,0,0-7.949,12.755c1.294,5.916,6.84,9.982,12.571,8.873L517.36,201.413A5.713,5.713,0,0,1,518.839,201.043Z" transform="translate(-333.155 -179.601)" fill="#263238" stroke="#263238" stroke-linecap="round" stroke-linejoin="round" stroke-width="1"/>
        </g>
        <g id="Group_58" data-name="Group 58" transform="translate(454.824 7.747)">
          <path id="Path_69" data-name="Path 69" d="M422.084,256.827a2.4,2.4,0,0,0,1.664-2.588l-3.512-34.384a17.529,17.529,0,0,1,8.134-16.822l23.108-14.6a2.538,2.538,0,1,0-2.773-4.252l-23.108,14.6a22.573,22.573,0,0,0-10.537,21.629l3.512,34.384a2.39,2.39,0,0,0,2.773,2.218C421.715,257.012,421.9,257.012,422.084,256.827Z" transform="translate(-414.93 -183.792)" fill="#fff" stroke="#263238" stroke-linecap="round" stroke-linejoin="round" stroke-width="1"/>
        </g>
        <g id="Group_75" data-name="Group 75" transform="translate(0 66.55)">
          <g id="Group_72" data-name="Group 72" transform="translate(2.851 9.402)">
            <g id="Group_59" data-name="Group 59">
              <path id="Path_70" data-name="Path 70" d="M447.476,594.685a1.4,1.4,0,0,0,.739-.37l203.9-154.174a2.25,2.25,0,0,0,.924-2.218L631.412,222.929a2.511,2.511,0,0,0-4.991.555l21.629,213.7L446,589.878l-156.577-5.731-114.614-127a2.487,2.487,0,1,0-3.7,3.327L286.462,588.215a2.954,2.954,0,0,0,1.849.924l158.611,5.731C446.736,594.87,447.106,594.87,447.476,594.685Z" transform="translate(-170.437 -220.687)" fill="#fff" stroke="#263238" stroke-linecap="round" stroke-linejoin="round" stroke-width="1"/>
            </g>
            <g id="Group_60" data-name="Group 60" transform="translate(194.157 219.574)">
              <path id="Path_71" data-name="Path 71" d="M358.347,493.889c.185,0,.185,0,.37-.185a2.705,2.705,0,0,0,1.109-3.512l-79.49-149.368a2.6,2.6,0,1,0-4.622,2.4L355.2,492.595A2.307,2.307,0,0,0,358.347,493.889Z" transform="translate(-275.465 -339.465)" fill="#fff" stroke="#263238" stroke-linecap="round" stroke-linejoin="round" stroke-width="1"/>
            </g>
            <g id="Group_61" data-name="Group 61" transform="translate(145.588 227.573)">
              <path id="Path_72" data-name="Path 72" d="M339.974,488.553c.185,0,.37-.185.555-.185a2.592,2.592,0,0,0,.739-3.512l-87.439-139.94a2.631,2.631,0,0,0-3.512-.739,2.592,2.592,0,0,0-.739,3.512l87.439,139.94A2.546,2.546,0,0,0,339.974,488.553Z" transform="translate(-249.192 -343.792)" fill="#fff" stroke="#263238" stroke-linecap="round" stroke-linejoin="round" stroke-width="1"/>
            </g>
            <g id="Group_62" data-name="Group 62" transform="translate(97.339 232.564)">
              <path id="Path_73" data-name="Path 73" d="M316.831,485.338c.185,0,.37-.185.555-.37a2.631,2.631,0,0,0,.739-3.512l-90.4-133.839a2.538,2.538,0,1,0-4.252,2.773l90.4,133.839A2.4,2.4,0,0,0,316.831,485.338Z" transform="translate(-223.092 -346.492)" fill="#fff" stroke="#263238" stroke-linecap="round" stroke-linejoin="round" stroke-width="1"/>
            </g>
            <g id="Group_63" data-name="Group 63" transform="translate(49.586 232.69)">
              <path id="Path_74" data-name="Path 74" d="M298.268,481.952c.185,0,.37-.185.739-.37a2.619,2.619,0,0,0,.555-3.512L201.771,347.558a2.514,2.514,0,0,0-4.067,2.958L295.5,481.028A2.1,2.1,0,0,0,298.268,481.952Z" transform="translate(-197.26 -346.56)" fill="#fff" stroke="#263238" stroke-linecap="round" stroke-linejoin="round" stroke-width="1"/>
            </g>
            <g id="Group_64" data-name="Group 64" transform="translate(241.332 182.267)">
              <path id="Path_75" data-name="Path 75" d="M371.076,481.622h0a2.451,2.451,0,0,0,1.479-3.327l-66.735-157.5a2.525,2.525,0,1,0-4.622,2.033l66.735,157.5A2.555,2.555,0,0,0,371.076,481.622Z" transform="translate(-300.984 -319.284)" fill="#fff" stroke="#263238" stroke-linecap="round" stroke-linejoin="round" stroke-width="1"/>
            </g>
            <g id="Group_65" data-name="Group 65" transform="translate(283.229 146.153)">
              <path id="Path_76" data-name="Path 76" d="M384.748,474.722a2.4,2.4,0,0,0,1.479-3.143L328.55,301.507a2.514,2.514,0,1,0-4.806,1.479L381.42,473.059a2.546,2.546,0,0,0,3.328,1.664Z" transform="translate(-323.648 -299.748)" fill="#fff" stroke="#263238" stroke-linecap="round" stroke-linejoin="round" stroke-width="1"/>
            </g>
            <g id="Group_66" data-name="Group 66" transform="translate(319.462 115.466)">
              <path id="Path_77" data-name="Path 77" d="M400.281,463.114a2.333,2.333,0,0,0,1.479-3.143L348.15,284.907a2.514,2.514,0,0,0-4.806,1.479l53.61,175.063a2.782,2.782,0,0,0,3.328,1.664Z" transform="translate(-343.249 -283.149)" fill="#fff" stroke="#263238" stroke-linecap="round" stroke-linejoin="round" stroke-width="1"/>
            </g>
            <g id="Group_67" data-name="Group 67" transform="translate(355.153 86.087)">
              <path id="Path_78" data-name="Path 78" d="M413.1,454.6a2.53,2.53,0,0,0,1.664-2.958l-47.14-182.458a2.578,2.578,0,0,0-4.991,1.294l47.14,182.273a2.593,2.593,0,0,0,3.143,1.849Z" transform="translate(-362.556 -267.256)" fill="#fff" stroke="#263238" stroke-linecap="round" stroke-linejoin="round" stroke-width="1"/>
            </g>
            <g id="Group_68" data-name="Group 68" transform="translate(392.738 53.425)">
              <path id="Path_79" data-name="Path 79" d="M423.211,450.37a2.618,2.618,0,0,0,1.664-2.773L387.9,251.644a2.538,2.538,0,0,0-4.991.924l36.972,195.953a2.671,2.671,0,0,0,2.958,2.033C423.026,450.555,423.211,450.555,423.211,450.37Z" transform="translate(-382.887 -249.587)" fill="#fff" stroke="#263238" stroke-linecap="round" stroke-linejoin="round" stroke-width="1"/>
            </g>
            <g id="Group_69" data-name="Group 69" transform="translate(430.635 23.293)">
              <path id="Path_80" data-name="Path 80" d="M430.77,443.868a2.4,2.4,0,0,0,1.664-2.588L408.4,235.529a2.511,2.511,0,0,0-4.991.555l24.032,205.75a2.482,2.482,0,0,0,2.773,2.218C430.4,444.052,430.585,443.868,430.77,443.868Z" transform="translate(-403.387 -233.287)" fill="#fff" stroke="#263238" stroke-linecap="round" stroke-linejoin="round" stroke-width="1"/>
            </g>
            <g id="Group_70" data-name="Group 70" transform="translate(33.187 63.129)">
              <path id="Path_81" data-name="Path 81" d="M379.186,468.468h.185C387.5,464.771,602.5,280.28,626.9,259.206a2.487,2.487,0,0,0-3.328-3.7c-66,56.567-238.656,204.456-246.42,208.523h0c-6.84,2.4-115.168,5.731-186.34,7.21a2.5,2.5,0,1,0,.185,4.991C220.945,475.308,369.2,471.981,379.186,468.468Z" transform="translate(-188.389 -254.837)" fill="#fff" stroke="#263238" stroke-linecap="round" stroke-linejoin="round" stroke-width="1"/>
            </g>
            <g id="Group_71" data-name="Group 71" transform="translate(73.137 139.926)">
              <path id="Path_82" data-name="Path 82" d="M387.282,486.454c3.143-1.109,162.863-130.142,231.261-185.6a2.5,2.5,0,1,0-3.143-3.882c-76.163,61.744-220.724,178.391-229.782,184.676-7.949.74-107.219-.185-173.03-1.109a2.588,2.588,0,1,0,0,5.176C276.365,486.454,384.139,487.563,387.282,486.454Z" transform="translate(-210 -296.38)" fill="#fff" stroke="#263238" stroke-linecap="round" stroke-linejoin="round" stroke-width="1"/>
            </g>
          </g>
          <g id="Group_73" data-name="Group 73">
            <path id="Path_83" data-name="Path 83" d="M357.278,458.137a4.025,4.025,0,0,0,1.479-.924L639.376,224.657a5.125,5.125,0,0,0-6.47-7.949L353.581,448.524l-179.87,9.613a5.091,5.091,0,0,0,.555,10.167l181.534-9.8A3.482,3.482,0,0,0,357.278,458.137Z" transform="translate(-168.894 -215.601)" fill="#fff" stroke="#263238" stroke-linecap="round" stroke-linejoin="round" stroke-width="1"/>
          </g>
          <g id="Group_74" data-name="Group 74" transform="translate(107.219 217.397)">
            <path id="Path_84" data-name="Path 84" d="M399.2,504.2a4.024,4.024,0,0,0,1.479-.924L613.08,342.257a5.125,5.125,0,1,0-6.47-7.949L395.5,494.213,231.711,483.676a5.091,5.091,0,0,0,.555,10.167L397.717,504.38A1.965,1.965,0,0,0,399.2,504.2Z" transform="translate(-226.894 -333.201)" fill="#fff" stroke="#263238" stroke-linecap="round" stroke-linejoin="round" stroke-width="1"/>
          </g>
        </g>
      </g>
    </g>
    <g id="Gift_2" transform="translate(246.071 184.24)">
      <g id="Group_82" data-name="Group 82" transform="translate(0 0)">
        <g id="Group_77" data-name="Group 77" transform="translate(35.124 14.614)">
          <path id="Path_85" data-name="Path 85" d="M139.813,41.9,77.7,79.8,191.02,97.543l57.122-38.266Z" transform="translate(-77.7 -41.9)" fill="#fff" stroke="#263238" stroke-linecap="round" stroke-linejoin="round" stroke-width="1"/>
          <path id="Path_86" data-name="Path 86" d="M94.6,53.728l107.589,19.6,5.361-3.882L100.7,50.4Z" transform="translate(-63.358 -34.687)" fill="#0d3745" stroke="#263238" stroke-linecap="round" stroke-linejoin="round" stroke-width="1"/>
          <path id="Path_87" data-name="Path 87" d="M139,89.566l9.243,104.816,55.273-45.846L196.122,51.3Z" transform="translate(-25.68 -33.923)" fill="#fff" stroke="#263238" stroke-linecap="round" stroke-linejoin="round" stroke-width="1"/>
          <path id="Path_88" data-name="Path 88" d="M158.161,60.7l12.016,97.237-5.731,5.916L152.8,64.582Z" transform="translate(-13.969 -25.946)" fill="#0d3745" stroke="#263238" stroke-linecap="round" stroke-linejoin="round" stroke-width="1"/>
          <path id="Path_89" data-name="Path 89" d="M77.7,62.4,88.977,164.443l111.286,20.52L191.02,80.147Z" transform="translate(-77.7 -24.503)" fill="#fff" stroke="#263238" stroke-linecap="round" stroke-linejoin="round" stroke-width="1"/>
        </g>
        <path id="Path_90" data-name="Path 90" d="M158.634,45.6,104.1,84.421l6.47,1.294,54.164-39.191Z" transform="translate(-20.173 -24.146)" fill="#0d3745" stroke="#263238" stroke-linecap="round" stroke-linejoin="round" stroke-width="1"/>
        <path id="Path_91" data-name="Path 91" d="M104.1,66.6l9.983,102.968,6.285,1.294-9.8-102.968Z" transform="translate(-20.173 -6.325)" fill="#0d3745" stroke="#263238" stroke-linecap="round" stroke-linejoin="round" stroke-width="1"/>
        <g id="Group_81" data-name="Group 81">
          <g id="Group_80" data-name="Group 80">
            <path id="Path_92" data-name="Path 92" d="M145.607,54.5s-33.83.924-44.182,2.588,1.109,7.949,6.1,10.537,7.025,2.033,15.9-2.218C132.3,60.97,145.607,54.5,145.607,54.5Z" transform="translate(-26.002 -16.594)" fill="#0d3745" stroke="#263238" stroke-linecap="round" stroke-linejoin="round" stroke-width="1"/>
            <g id="Group_78" data-name="Group 78" transform="translate(115.652 36.374)">
              <path id="Path_93" data-name="Path 93" d="M121.887,53.725c-2.033,1.109,1.479,5.731,2.218,6.47A55.362,55.362,0,0,0,135.2,70.917c4.991,3.7,10.907,6.285,16.453,8.873.739.37,1.294.555,2.033.924.185.185,1.294.555,0,0s.185.185.555.37c1.479.739,2.773,1.479,4.252,2.4a45.765,45.765,0,0,1,6.655,5.176c3.882,3.7,7.394,8.319,8.873,13.495,3.512,11.461-1.294,23.292-5.731,33.83-2.218,5.176-4.622,10.352-6.84,15.528a43.587,43.587,0,0,0-2.218,5.176,7.75,7.75,0,0,0-.739,2.958c0,.37,2.958,1.479,3.327,1.664a29.323,29.323,0,0,1,3.328,1.479c0-2.218,1.479-4.806,2.4-6.655,1.849-4.252,3.882-8.5,5.731-12.755a162.379,162.379,0,0,0,6.84-17.931,41.531,41.531,0,0,0,1.664-15.713c-1.479-10.907-10.167-19.6-19.41-24.771-2.773-1.479-5.546-2.773-8.319-4.252L149.616,78.5s-.924-.555-.37-.185c.739.37-.739-.37-.924-.555-.924-.555-1.849-.924-2.588-1.479a53.4,53.4,0,0,1-12.94-11.092c-1.664-1.849-4.067-4.437-4.437-7.025a2.485,2.485,0,0,1,.37-1.664c-.185.185-2.958-1.479-3.327-1.664-.555.185-3.143-1.479-3.512-1.109Z" transform="translate(-121.262 -53.671)" fill="#0d3745" stroke="#263238" stroke-linecap="round" stroke-linejoin="round" stroke-width="1"/>
            </g>
            <path id="Path_94" data-name="Path 94" d="M132.356,55.9s-22.738,5.546-24.956,7.394c-2.033,1.849-2.033,4.806,0,4.622C109.434,67.916,132.356,55.9,132.356,55.9Z" transform="translate(-18.667 -15.405)" fill="#263238" stroke="#263238" stroke-linecap="round" stroke-linejoin="round" stroke-width="1"/>
            <path id="Path_95" data-name="Path 95" d="M123.8,59.7s3.512-1.479,9.243-6.1,10.352-7.949,13.495-7.025S158,52.856,156.89,54.335s-3.143.924-9.058,1.849-21.074,4.252-21.074,4.252Z" transform="translate(-3.455 -23.453)" fill="#0d3745" stroke="#263238" stroke-linecap="round" stroke-linejoin="round" stroke-width="1"/>
            <path id="Path_96" data-name="Path 96" d="M155.432,51.791s-.555-2.773-4.991-2.033c-4.622.924-25.141,8.134-25.141,8.134Z" transform="translate(-2.183 -20.724)" fill="#263238" stroke="#263238" stroke-linecap="round" stroke-linejoin="round" stroke-width="1"/>
            <g id="Group_79" data-name="Group 79">
              <path id="Path_97" data-name="Path 97" d="M175.347,75.968a152.817,152.817,0,0,0-7.025-20.15c-2.218-5.176-4.437-10.722-7.579-15.528-2.588-4.067-6.1-6.47-11.092-6.285-6.655.37-12.755,3.7-19.41,4.252-4.622.37-9.243-.739-13.865-1.294-5.176-.739-10.537-1.109-15.713.555-6.1,2.033-10.907,6.655-14.789,11.831-8.5,11.646-12.94,27.914-27.175,34.384l2.958,6.655c22-9.8,22.183-47.509,50.1-47.324,4.806,0,9.428,1.109,14.049,1.664a36.855,36.855,0,0,0,15.528-1.479c5.361-1.479,11.461-4.067,16.822-1.479,3.512,1.664,5.546,5.361,7.394,8.688.37.555.555,1.109.924,1.664.555,1.109.924,2.4-1.109-2.4l.555,1.109c.555,1.294.924,2.588,1.479,3.7.924,2.4,1.849,4.806,2.588,7.21s1.664,4.991,2.218,7.394c.924,2.588,2.588,4.437,3.143,6.84Z" transform="translate(-58.7 -33.995)" fill="#0d3745" stroke="#263238" stroke-linecap="round" stroke-linejoin="round" stroke-width="1"/>
            </g>
          </g>
          <path id="Path_98" data-name="Path 98" d="M119,55.238s2.773,2.773,4.067,2.588c1.294,0,9.243-1.849,7.579-3.327C128.8,53.2,122.328,52.65,119,55.238Z" transform="translate(-7.529 -17.517)" fill="#fff" stroke="#263238" stroke-linecap="round" stroke-linejoin="round" stroke-width="1"/>
        </g>
      </g>
    </g>
    <g id="Gift_3" transform="translate(473.635 159.057)">
      <g id="Group_85" data-name="Group 85">
        <g id="Group_84" data-name="Group 84" transform="translate(0 22.236)">
          <g id="Group_83" data-name="Group 83">
            <path id="Path_99" data-name="Path 99" d="M327.139,66.969,199.4,32.4l62.853,66.365L394.613,128.9Z" transform="translate(-166.864 -32.4)" fill="#0d3745" stroke="#fff" stroke-linecap="round" stroke-linejoin="round" stroke-width="1"/>
            <path id="Path_100" data-name="Path 100" d="M336.666,73.6,211.7,45.5l19.6,20.335L358.48,95.228Z" transform="translate(-156.427 -21.283)" fill="#8c8c8c" stroke="#263238" stroke-linecap="round" stroke-linejoin="round" stroke-width="1"/>
            <path id="Path_101" data-name="Path 101" d="M231.7,40.9l57.492,63.038,30.872,7.21-58.786-61Z" transform="translate(-139.454 -25.187)" fill="#8c8c8c" stroke="#263238" stroke-linecap="round" stroke-linejoin="round" stroke-width="1"/>
            <path id="Path_102" data-name="Path 102" d="M277.188,98.765l-37.9,88.364L181.8,114.293,214.336,32.4Z" transform="translate(-181.8 -32.4)" fill="#0d3745" stroke="#fff" stroke-linecap="round" stroke-linejoin="round" stroke-width="1"/>
            <path id="Path_103" data-name="Path 103" d="M227.824,45.5,192.7,128.872l17.192,21.814,37.527-84.851Z" transform="translate(-172.55 -21.283)" fill="#8c8c8c" stroke="#263238" stroke-linecap="round" stroke-linejoin="round" stroke-width="1"/>
            <path id="Path_104" data-name="Path 104" d="M212.9,156.664,347.294,181.8l35.863-83.372L250.8,68.3Z" transform="translate(-155.408 -1.935)" fill="#0d3745" stroke="#fff" stroke-linecap="round" stroke-linejoin="round" stroke-width="1"/>
          </g>
        </g>
        <path id="Path_105" data-name="Path 105" d="M272.076,78.1s-6.1-8.873-9.8-27.729c-3.882-18.856-3.143-27.359-15.9-29.947-4.437-.924-15.9,10.537-23.293,22.923s-.37,19.041,11.831,26.435C246.935,77.176,269.3,85.125,269.3,85.125Z" transform="translate(-149.328 -20.372)" fill="#8c8c8c" stroke="#263238" stroke-linecap="round" stroke-linejoin="round" stroke-width="1"/>
        <path id="Path_106" data-name="Path 106" d="M255.516,57.236s22.923-8.688,40.3-11.461S316.7,43.741,316.7,43.741s8.134,16.822,6.1,28.838a17.254,17.254,0,0,1-2.218,6.1,22.282,22.282,0,0,1-27.914,9.613L249.6,65.37Z" transform="translate(-124.264 -0.616)" fill="#8c8c8c" stroke="#263238" stroke-linecap="round" stroke-linejoin="round" stroke-width="1"/>
        <path id="Path_107" data-name="Path 107" d="M313.889,43.841S310.561,43.1,293,45.875c-17.377,2.773-40.3,11.461-40.3,11.461s43.257-4.806,51.207-7.949C311.856,46.059,313.889,43.841,313.889,43.841Z" transform="translate(-121.634 -0.531)" fill="#263238" stroke="#263238" stroke-linecap="round" stroke-linejoin="round" stroke-width="1"/>
        <path id="Path_108" data-name="Path 108" d="M248.424,61.512s-.924-9.983,4.991-6.1c6.1,3.882,39.006,2.773,45.476,6.285,13.68,7.579,27.359,25.511,28.284,25.7.924.37-4.806.555-28.654,0s-32.536-8.5-37.157-14.049C256.743,68.167,248.424,61.512,248.424,61.512Z" transform="translate(-125.307 8.603)" fill="#8c8c8c" stroke="#263238" stroke-linecap="round" stroke-linejoin="round" stroke-width="1"/>
        <path id="Path_109" data-name="Path 109" d="M249.4,55.5a69.735,69.735,0,0,0,13.68,8.319" transform="translate(-124.434 9.439)" fill="none" stroke="#263238" stroke-linecap="round" stroke-linejoin="round" stroke-width="1"/>
        <path id="Path_110" data-name="Path 110" d="M259.141,51.019s-9.428-.739-12.755,4.067c-3.328,4.622,2.033,8.688,4.622,9.428C253.595,65.068,259.141,51.019,259.141,51.019Z" transform="translate(-127.889 5.601)" fill="#8c8c8c" stroke="#263238" stroke-linecap="round" stroke-linejoin="round" stroke-width="1"/>
        <path id="Path_111" data-name="Path 111" d="M229.017,49.224s-11.461-2.773-16.638,1.294S204.8,69.558,204.8,69.558s13.31-10.907,19.78-13.68a39.149,39.149,0,0,1,11.092-3.143Z" transform="translate(-162.282 3.329)" fill="#545454" stroke="#263238" stroke-linecap="round" stroke-linejoin="round" stroke-width="1"/>
        <path id="Path_112" data-name="Path 112" d="M269.576,56.934a65.287,65.287,0,0,1-22.368-1.479C235.377,52.682,218,48.8,218,48.8s13.31,8.5,22,13.68c8.5,5.176,12.386,5.361,19.78,4.437a94.806,94.806,0,0,1,14.6-.555S276.231,61,269.576,56.934Z" transform="translate(-151.08 3.753)" fill="#8c8c8c" stroke="#263238" stroke-linecap="round" stroke-linejoin="round" stroke-width="1"/>
        <path id="Path_113" data-name="Path 113" d="M279.263,75,243.4,161.33l31.8,6.1L310.135,82.21Z" transform="translate(-129.526 25.986)" fill="#8c8c8c" stroke="#263238" stroke-linecap="round" stroke-linejoin="round" stroke-width="1"/>
      </g>
    </g>
    <g id="Gift_1" transform="translate(320.571 385.749)">
      <g id="Group_87" data-name="Group 87">
        <g id="Group_86" data-name="Group 86">
          <path id="Path_114" data-name="Path 114" d="M232.475,156.125l94.649,98.9-106.11-.924L106.4,143Z" transform="translate(-92.72 -143)" fill="#0d3745" stroke="#f3f2ed" stroke-linecap="round" stroke-linejoin="round" stroke-width="1"/>
          <path id="Path_115" data-name="Path 115" d="M227.294,254.1l-17.932,29.947L99,168.881,112.68,143Z" transform="translate(-99 -143)" fill="#0d3745" stroke="#f3f2ed" stroke-linecap="round" stroke-linejoin="round" stroke-width="1"/>
          <path id="Path_116" data-name="Path 116" d="M158.7,233.048l109.253-2.033,14.789-26.99-106.11-.924Z" transform="translate(-48.338 -91.999)" fill="#0d3745" stroke="#f3f2ed" stroke-linecap="round" stroke-linejoin="round" stroke-width="1"/>
        </g>
        <path id="Path_117" data-name="Path 117" d="M257.645,183.822l-114.614-5.731L131.2,167l117.017,7.394Z" transform="translate(-71.675 -122.633)" fill="#fff" stroke="#263238" stroke-linecap="round" stroke-linejoin="round" stroke-width="1"/>
        <path id="Path_118" data-name="Path 118" d="M149.82,178.092l-15.9,28.469L123.2,195.1,137.989,167Z" transform="translate(-78.464 -122.633)" fill="#fff" stroke="#263238" stroke-linecap="round" stroke-linejoin="round" stroke-width="1"/>
        <path id="Path_119" data-name="Path 119" d="M159.3,148.564l92.43,102.413H236.94L143.4,146.9Z" transform="translate(-61.322 -139.69)" fill="#fff" stroke="#263238" stroke-linecap="round" stroke-linejoin="round" stroke-width="1"/>
        <path id="Path_120" data-name="Path 120" d="M215.238,203.2l-14.049,28.653-14.789.185L200.449,203.2Z" transform="translate(-24.831 -91.914)" fill="#fff" stroke="#263238" stroke-linecap="round" stroke-linejoin="round" stroke-width="1"/>
      </g>
    </g>
    <g id="Bag_3" transform="translate(284.338 526.445)">
      <g id="Group_89" data-name="Group 89">
        <path id="Path_121" data-name="Path 121" d="M85.287,222.824a7.513,7.513,0,0,1,3.882-.924,19.073,19.073,0,0,0-.185,3.512,5.707,5.707,0,0,0-2.033.37c-3.512,2.034.185,22,12.016,51.761.739,2.033,1.479,3.882,2.4,5.916l-2.958,2.588c-.739-1.664-1.479-3.7-2.4-5.916-2.218-5.546-4.806-12.755-7.21-19.965C79,230.958,81.774,224.858,85.287,222.824Z" transform="translate(-77.153 -216.741)" fill="#fff" stroke="#263238" stroke-linecap="round" stroke-linejoin="round" stroke-width="1"/>
        <path id="Path_122" data-name="Path 122" d="M139.681,244.653l-2.958,2.4c-2.033-1.109-2.958-1.664-4.991-2.773-22-12.016-36.418-17.377-44-18.671a9.947,9.947,0,0,1,.185-3.512c12.2,1.849,33.09,12.386,46.585,19.78C137.093,242.989,137.833,243.729,139.681,244.653Z" transform="translate(-72.392 -216.571)" fill="#fff" stroke="#263238" stroke-linecap="round" stroke-linejoin="round" stroke-width="1"/>
        <g id="Group_88" data-name="Group 88">
          <path id="Path_123" data-name="Path 123" d="M79.4,302.427l1.294-1.109L165.73,224.6l6.285,7.394-70.432,61.559Z" transform="translate(-79.4 -214.449)" fill="#8c8c8c" stroke="#263238" stroke-linecap="round" stroke-linejoin="round" stroke-width="1"/>
          <path id="Path_124" data-name="Path 124" d="M123.2,240.5l5.361-15.9,6.285,7.394Z" transform="translate(-42.231 -214.449)" fill="#595959" stroke="#263238" stroke-linecap="round" stroke-linejoin="round" stroke-width="1"/>
          <path id="Path_125" data-name="Path 125" d="M86.4,298.126,189.552,454.888,313.594,344.711,169.218,226.4Z" transform="translate(-73.46 -212.922)" fill="#263238" stroke="#263238" stroke-linecap="round" stroke-linejoin="round" stroke-width="1"/>
          <path id="Path_126" data-name="Path 126" d="M152.889,247.191l-2.958,2.588c-2.218-1.479-4.437-2.773-6.655-4.067-32.72-19.41-49.728-24.4-52.685-22.553a2.281,2.281,0,0,0-.924,1.479,10.294,10.294,0,0,0-.185,3.512c.555,8.319,5.916,26.62,16.268,50.837.924,2.218,1.849,4.252,2.773,6.47l-2.958,2.588c-.739-1.849-1.664-4.067-2.773-6.47-2.588-6.1-5.731-13.865-8.688-21.629-6.1-16.822-8.319-26.435-8.5-32.166a20.13,20.13,0,0,1,.185-3.512,5.4,5.4,0,0,1,2.773-4.437c7.949-4.437,39.191,12.571,57.492,23.292C148.822,244.788,151.041,246.082,152.889,247.191Z" transform="translate(-74.139 -219.109)" fill="#fff" stroke="#263238" stroke-linecap="round" stroke-linejoin="round" stroke-width="1"/>
        </g>
        <path id="Path_127" data-name="Path 127" d="M195.493,427.393l-25.881,4.067L79.4,273.4l26.8-14.6L92.34,270.631Z" transform="translate(-79.4 -185.427)" fill="#595959" stroke="#263238" stroke-linecap="round" stroke-linejoin="round" stroke-width="1"/>
        <line id="Line_3" data-name="Line 3" y1="30.132" x2="7.579" transform="translate(90.212 215.901)" fill="none" stroke="#263238" stroke-linecap="round" stroke-linejoin="round" stroke-width="1"/>
      </g>
    </g>
    <g id="Bag_2" transform="translate(551.277 399.515)">
      <g id="Group_96" data-name="Group 96">
        <g id="Group_90" data-name="Group 90" transform="translate(27.422)">
          <path id="Path_128" data-name="Path 128" d="M241.529,249.673s-4.806-78.011-2.033-89.473l15.713,84.851Z" transform="translate(-238.634 -142.17)" fill="#263238" stroke="#263238" stroke-linecap="round" stroke-linejoin="round" stroke-width="1"/>
          <path id="Path_129" data-name="Path 129" d="M239.1,168.477s2.588-16.822,12.2-17.932c9.428-1.109,17.377,7.394,18.486,12.2a99.551,99.551,0,0,1,1.664,11.646s-9.983-16.268-18.486-13.68-11.646,16.822-11.646,16.822Z" transform="translate(-238.238 -150.447)" fill="#263238" stroke="#263238" stroke-linecap="round" stroke-linejoin="round" stroke-width="1"/>
          <path id="Path_130" data-name="Path 130" d="M255.6,157l6.285,83.187L276.12,233.9S265.028,173.453,255.6,157Z" transform="translate(-224.236 -144.885)" fill="#263238" stroke="#263238" stroke-linecap="round" stroke-linejoin="round" stroke-width="1"/>
        </g>
        <g id="Group_95" data-name="Group 95" transform="translate(0 15.159)">
          <g id="Group_91" data-name="Group 91" transform="translate(10.352 64.615)">
            <path id="Path_131" data-name="Path 131" d="M229.4,222.623,310,193.6l3.882,34.939-33.46,16.822Z" transform="translate(-229.4 -193.6)" fill="#fff" stroke="#263238" stroke-linecap="round" stroke-linejoin="round" stroke-width="1"/>
            <path id="Path_132" data-name="Path 132" d="M273,193.6l53.61,4.991-51.576,19.041Z" transform="translate(-192.401 -193.6)" fill="#fff" stroke="#263238" stroke-linecap="round" stroke-linejoin="round" stroke-width="1"/>
          </g>
          <g id="Group_92" data-name="Group 92" transform="translate(10.167 23.946)">
            <path id="Path_133" data-name="Path 133" d="M272.047,204.581,250.233,178.7s-2.033,44.736-2.033,46.215,23.847-12.755,23.847-12.755Z" transform="translate(-213.261 -165.575)" fill="#0d3745"/>
            <path id="Path_134" data-name="Path 134" d="M237.8,233.194,229.3,185.5l48.064,23.847,18.856,23.847-38.636,15.343Z" transform="translate(-229.3 -159.804)" fill="#0d3745"/>
            <path id="Path_135" data-name="Path 135" d="M251.2,233.9l15.343-41.039L311.838,171.6l-5.916,73.944L248.8,246.654Z" transform="translate(-212.752 -171.6)" fill="#0d3745"/>
            <path id="Path_136" data-name="Path 136" d="M275.1,237.958l.555-3.512,9.058-51.946,41.594,7.579-9.058,27.914" transform="translate(-190.434 -162.35)" fill="#0d3745"/>
          </g>
          <path id="Path_137" data-name="Path 137" d="M234.152,209.3,223.8,423.184l31.242-3.143,30.132,12.386L284.25,216.14Z" transform="translate(-223.8 -115.662)" fill="#fff" stroke="#263238" stroke-linecap="round" stroke-linejoin="round" stroke-width="1"/>
          <path id="Path_138" data-name="Path 138" d="M238.291,221.1c2.773,0,4.991,6.47,4.991,14.419s-2.218,14.419-4.991,14.419-4.991-6.47-4.991-14.419S235.518,221.1,238.291,221.1Zm19.226,60.265c0,7.949,2.218,14.419,4.991,14.419s4.991-6.47,4.991-14.419-2.218-14.419-4.991-14.419S257.517,273.416,257.517,281.365Zm-24.217,46.4c0,7.949,2.218,14.419,4.991,14.419s4.991-6.47,4.991-14.419-2.218-14.419-4.991-14.419C235.518,313.161,233.3,319.631,233.3,327.765Zm24.217,45.661c0,7.949,2.218,14.419,4.991,14.419s4.991-6.47,4.991-14.419-2.218-14.419-4.991-14.419S257.517,365.477,257.517,373.426Z" transform="translate(-215.738 -105.648)" fill="#0d3745"/>
          <line id="Line_4" data-name="Line 4" y1="65.995" x2="1.479" transform="translate(34.754 99.369)" fill="none" stroke="#263238" stroke-linecap="round" stroke-linejoin="round" stroke-width="1"/>
          <line id="Line_5" data-name="Line 5" y1="128.663" x2="3.143" transform="translate(31.242 175.717)" fill="none" stroke="#263238" stroke-linecap="round" stroke-linejoin="round" stroke-width="1"/>
          <path id="Path_139" data-name="Path 139" d="M257.424,443.459l120.714-65.441L340.612,196.3,256.5,227.172Z" transform="translate(-196.05 -126.694)" fill="#fff" stroke="#263238" stroke-linecap="round" stroke-linejoin="round" stroke-width="1"/>
          <g id="Group_93" data-name="Group 93" transform="translate(70.432 97.89)">
            <path id="Path_140" data-name="Path 140" d="M273.183,248.519c0,7.949-2.218,14.419-4.991,14.419s-4.991-6.47-4.991-14.419,2.218-14.419,4.991-14.419C270.779,234.1,273.183,240.57,273.183,248.519Z" transform="translate(-260.797 -192.506)" fill="#0d3745"/>
            <path id="Path_141" data-name="Path 141" d="M272.783,290.521c0,7.949-2.218,14.419-4.991,14.419s-4.991-6.47-4.991-14.419,2.218-14.419,4.991-14.419C270.379,275.917,272.783,282.387,272.783,290.521Z" transform="translate(-261.136 -156.866)" fill="#0d3745"/>
            <ellipse id="Ellipse_7" data-name="Ellipse 7" cx="4.991" cy="14.419" rx="4.991" ry="14.419" transform="translate(60.08 9.982)" fill="#0d3745"/>
            <ellipse id="Ellipse_8" data-name="Ellipse 8" cx="4.991" cy="14.419" rx="4.991" ry="14.419" transform="translate(65.071 88.733)" fill="#0d3745"/>
            <ellipse id="Ellipse_9" data-name="Ellipse 9" cx="4.991" cy="14.419" rx="4.991" ry="14.419" transform="translate(27.914)" fill="#0d3745"/>
            <path id="Path_142" data-name="Path 142" d="M289.183,266.621c0,7.949-2.218,14.419-4.991,14.419s-4.991-6.47-4.991-14.419,2.218-14.419,4.991-14.419C286.964,252.017,289.183,258.487,289.183,266.621Z" transform="translate(-247.219 -177.148)" fill="#0d3745"/>
            <ellipse id="Ellipse_10" data-name="Ellipse 10" cx="4.991" cy="14.419" rx="4.991" ry="14.419" transform="translate(92.8 124.966)" fill="#0d3745"/>
            <ellipse id="Ellipse_11" data-name="Ellipse 11" cx="4.991" cy="14.419" rx="4.991" ry="14.419" transform="translate(0 177.282)" fill="#0d3745"/>
            <ellipse id="Ellipse_12" data-name="Ellipse 12" cx="4.991" cy="14.419" rx="4.991" ry="14.419" transform="translate(79.121 46.955)" fill="#0d3745"/>
            <path id="Path_143" data-name="Path 143" d="M292.383,308.119c0,7.949-2.218,14.419-4.991,14.419s-4.991-6.47-4.991-14.419,2.218-14.419,4.991-14.419S292.383,300.17,292.383,308.119Z" transform="translate(-244.503 -141.929)" fill="#0d3745"/>
          </g>
          <g id="Group_94" data-name="Group 94" transform="translate(76.41)">
            <path id="Path_144" data-name="Path 144" d="M268.029,257.973S263.223,179.961,266,168.5l15.713,84.851Z" transform="translate(-265.134 -150.285)" fill="#263238" stroke="#263238" stroke-linecap="round" stroke-linejoin="round" stroke-width="1"/>
            <path id="Path_145" data-name="Path 145" d="M265.6,176.677s2.588-16.822,12.2-17.932c9.428-1.109,17.377,7.394,18.486,12.2a99.562,99.562,0,0,1,1.664,11.646s-9.982-16.268-18.486-13.68-11.646,16.822-11.646,16.822Z" transform="translate(-264.738 -158.647)" fill="#263238" stroke="#263238" stroke-linecap="round" stroke-linejoin="round" stroke-width="1"/>
            <path id="Path_146" data-name="Path 146" d="M282.1,165.3l6.285,83.188L302.62,242.2S291.528,181.568,282.1,165.3Z" transform="translate(-250.736 -153)" fill="#263238" stroke="#263238" stroke-linecap="round" stroke-linejoin="round" stroke-width="1"/>
          </g>
        </g>
      </g>
    </g>
    <g id="Bag_1" transform="translate(676.058 207.717)">
      <g id="Group_98" data-name="Group 98">
        <path id="Path_147" data-name="Path 147" d="M467.288,187.881l-129.773-3.327L291.3,162l109.068.555Z" transform="translate(-291.3 51.156)" fill="#0d3745" stroke="#fff" stroke-linecap="round" stroke-linejoin="round" stroke-width="1"/>
        <g id="Group_97" data-name="Group 97">
          <path id="Path_148" data-name="Path 148" d="M449.2,63.4,350.3,246.228l66.92,25.326L464.359,69.5l-10.907,5.916Z" transform="translate(-241.232 -32.517)" fill="#0d3745" stroke="#fff" stroke-linecap="round" stroke-linejoin="round" stroke-width="1"/>
          <line id="Line_6" data-name="Line 6" x1="68.583" y2="184.861" transform="translate(143.637 42.899)" fill="none" stroke="#fff" stroke-linecap="round" stroke-linejoin="round" stroke-width="1"/>
          <path id="Path_149" data-name="Path 149" d="M499.269,63.4,391.125,90.759,291.3,245.673l109.068.555Z" transform="translate(-291.3 -32.517)" fill="#0d3745" stroke="#fff" stroke-linecap="round" stroke-linejoin="round" stroke-width="1"/>
          <path id="Path_150" data-name="Path 150" d="M395.348,96.063s25.326-40.115,11.831-48.434-46.4,41.224-47.879,55.089" transform="translate(-233.594 -46.694)" fill="none" stroke="#263238" stroke-linecap="round" stroke-linejoin="round" stroke-width="2"/>
          <path id="Path_151" data-name="Path 151" d="M389.4,76.949s15.344-24.771,25.7-19.965c10.352,4.622,2.773,19.226,2.773,19.226" transform="translate(-208.051 -38.487)" fill="none" stroke="#263238" stroke-linecap="round" stroke-linejoin="round" stroke-width="2"/>
        </g>
      </g>
    </g>
  </g>
</svg>
