<svg xmlns="http://www.w3.org/2000/svg" width="118.025" height="43.757" viewBox="0 0 118.025 43.757">
  <g id="OBJECTS" transform="translate(-5525.554 -13008.949)">
    <g id="_2343555918544" transform="translate(5525.554 13008.949)">
      <circle id="Ellipse_22" data-name="Ellipse 22" cx="19.036" cy="19.036" r="19.036" transform="translate(10.452 5.685)" fill="#fcbe30"/>
      <g id="Group_99" data-name="Group 99">
        <path id="Path_152" data-name="Path 152" d="M5539.216,13820.4a.943.943,0,1,0,.926-.957A.942.942,0,0,0,5539.216,13820.4Zm7.621-.123a.943.943,0,1,0,.927-.961A.944.944,0,0,0,5546.836,13820.276Zm-18.356-.25a4.475,4.475,0,0,1,4.365-3.926l22.1-.361a4.474,4.474,0,0,1,4.492,3.777l3.661,23.375a4.473,4.473,0,0,1-4.344,5.166l-4.923.08a1.111,1.111,0,0,0-.057-.16l-1.015-2.143a1.17,1.17,0,0,1,.556-1.557l1.592-.752a1.166,1.166,0,0,0,.2-1.986l-7.439-5.615a1.169,1.169,0,0,0-1.87.887l-.372,9.313a1.169,1.169,0,0,0,1.667,1.1l1.593-.756a1.169,1.169,0,0,1,1.556.555l.549,1.16-20.7.342a4.473,4.473,0,0,1-4.513-5.018Z" transform="translate(-5525.554 -13806.153)" fill="#fff"/>
        <path id="Path_153" data-name="Path 153" d="M6648.548,13017.631l2.265-.037-.038-2.359c-.036-2.187,1.347-3.99,3.084-4.02a2.821,2.821,0,0,1,2.179,1.053,4.468,4.468,0,0,1,1.037,2.863l.039,2.361,2.264-.039-.038-2.357a6.724,6.724,0,0,0-1.591-4.311,5.051,5.051,0,0,0-3.927-1.836c-2.984.051-5.367,2.885-5.312,6.322Z" transform="translate(-6635.167 -13008.948)" fill="#fff"/>
      </g>
      <path id="Path_154" data-name="Path 154" d="M8837.039,13691.15c0-7.109-10.344-4.855-10.344-8.9,0-1.646,1.184-2.428,2.772-2.369a2.664,2.664,0,0,1,2.891,2.4h4.448c-.26-3.643-3.09-5.75-7.222-5.75-4.161,0-7.108,2.2-7.108,5.836-.029,7.311,10.372,4.68,10.372,9.045,0,1.443-1.126,2.457-3.033,2.457a2.771,2.771,0,0,1-3.063-2.687h-4.333c.058,3.813,3.3,6.008,7.483,6.008C8834.5,13697.188,8837.039,13694.326,8837.039,13691.15Z" transform="translate(-8783.252 -13668.599)" fill="#fff"/>
      <path id="_1" data-name="1" d="M10263.7,13686.806a10.33,10.33,0,1,0-10.315,10.344A10.074,10.074,0,0,0,10263.7,13686.806Zm-16.5,0c0-4.1,2.516-6.676,6.185-6.676,3.64,0,6.155,2.572,6.155,6.676s-2.516,6.73-6.155,6.73C10249.716,13693.536,10247.2,13690.907,10247.2,13686.806Z" transform="translate(-10186.995 -13668.559)" fill="#fff"/>
      <path id="_2" data-name="2" d="M12224.584,13720.967h5.112l-8.553-10.17,8.323-10h-4.883l-7.337,9.041v-9.041h-4.048v20.166h4.048v-8.984Z" transform="translate(-12133.749 -13692.582)" fill="#fff"/>
      <path id="_3" data-name="3" d="M13742,13686.806a10.329,10.329,0,1,0-10.314,10.344A10.073,10.073,0,0,0,13742,13686.806Zm-16.5,0c0-4.1,2.514-6.676,6.184-6.676,3.639,0,6.152,2.572,6.152,6.676s-2.514,6.73-6.152,6.73C13728.014,13693.536,13725.5,13690.907,13725.5,13686.806Z" transform="translate(-13623.973 -13668.559)" fill="#fff"/>
      <path id="Path_155" data-name="Path 155" d="M8831.092,15662.9v8.713h-.882v-6.955l-3.107,6.955h-.643l-3.105-6.932v6.932h-.885v-8.713h.934l3.371,7.549,3.371-7.549Z" transform="translate(-8783.301 -15631.369)" fill="#fff"/>
      <path id="_1-2" data-name="1" d="M9683.2,15810.993a3.94,3.94,0,0,1,.423-1.861,3.052,3.052,0,0,1,1.175-1.238,3.355,3.355,0,0,1,1.7-.436,3.115,3.115,0,0,1,1.7.455,2.638,2.638,0,0,1,1.028,1.164v-1.516h.882v6.891h-.882v-1.527a2.763,2.763,0,0,1-1.042,1.17,3.061,3.061,0,0,1-1.7.459,3.275,3.275,0,0,1-1.685-.439,3.1,3.1,0,0,1-1.175-1.25A3.981,3.981,0,0,1,9683.2,15810.993Zm6.022.016a3.044,3.044,0,0,0-.34-1.465,2.425,2.425,0,0,0-.929-.973,2.54,2.54,0,0,0-1.294-.342,2.626,2.626,0,0,0-1.313.33,2.334,2.334,0,0,0-.914.951,3.088,3.088,0,0,0-.336,1.482,3.136,3.136,0,0,0,.336,1.486,2.35,2.35,0,0,0,.914.971,2.57,2.57,0,0,0,1.313.336,2.522,2.522,0,0,0,1.294-.344,2.407,2.407,0,0,0,.929-.971A3.052,3.052,0,0,0,9689.221,15811.009Z" transform="translate(-9633.804 -15774.211)" fill="#fff"/>
      <path id="_2-2" data-name="2" d="M10435.405,15806.65a2.133,2.133,0,0,1,.89-1,2.836,2.836,0,0,1,1.469-.355v.922h-.238a1.939,1.939,0,0,0-2.12,2.25v3.848h-.885v-6.891h.885Z" transform="translate(-10376.2 -15772.078)" fill="#fff"/>
      <path id="_3-2" data-name="3" d="M10822.924,15619.141l-2.84-3.094v3.094h-.885v-9.342h.885v5.529l2.775-3.082h1.237l-3.27,3.434,3.3,3.461Z" transform="translate(-10756.31 -15578.9)" fill="#fff"/>
      <path id="_4" data-name="4" d="M11301.9,15810.643a6.642,6.642,0,0,1-.025.7h-5.717a2.718,2.718,0,0,0,.377,1.336,2.242,2.242,0,0,0,.9.842,2.628,2.628,0,0,0,1.214.281,2.439,2.439,0,0,0,1.443-.416,1.963,1.963,0,0,0,.778-1.121h.932a2.919,2.919,0,0,1-1.079,1.646,3.305,3.305,0,0,1-2.074.637,3.469,3.469,0,0,1-1.744-.436,3.064,3.064,0,0,1-1.206-1.236,3.881,3.881,0,0,1-.436-1.875,3.954,3.954,0,0,1,.431-1.881,2.942,2.942,0,0,1,1.2-1.236,3.534,3.534,0,0,1,1.756-.432,3.351,3.351,0,0,1,1.72.432,2.97,2.97,0,0,1,1.138,1.154A3.282,3.282,0,0,1,11301.9,15810.643Zm-.9-.025a2.453,2.453,0,0,0-.31-1.312,2.108,2.108,0,0,0-.876-.822,2.664,2.664,0,0,0-1.211-.275,2.414,2.414,0,0,0-1.68.629,2.511,2.511,0,0,0-.77,1.781Z" transform="translate(-11226.714 -15774.2)" fill="#fff"/>
      <path id="_5" data-name="5" d="M11932.546,15672.795v4.277a1.224,1.224,0,0,0,.241.873,1.192,1.192,0,0,0,.848.236h.807v.76h-.946a1.933,1.933,0,0,1-1.389-.436,1.911,1.911,0,0,1-.457-1.434v-4.277h-.958v-.748h.958v-1.727h.9v1.727h1.9v.748Z" transform="translate(-11854.597 -15638.702)" fill="#fff"/>
      <path id="_6" data-name="6" d="M12374.143,15655.845a2.384,2.384,0,0,1-.747,1.832,3.177,3.177,0,0,1-2.233.7h-1.779v3.762h-.885v-8.826h2.664a3.172,3.172,0,0,1,2.229.693A2.4,2.4,0,0,1,12374.143,15655.845Zm-2.98,1.768q2.073,0,2.072-1.768a1.721,1.721,0,0,0-.494-1.336,2.259,2.259,0,0,0-1.578-.455h-1.779v3.559Z" transform="translate(-12287.202 -15621.892)" fill="#fff"/>
      <path id="_7" data-name="7" d="M12968.682,15609.8v9.342h-.883v-9.342Z" transform="translate(-12879.383 -15578.9)" fill="#fff"/>
      <path id="_8" data-name="8" d="M13177.1,15810.993a3.94,3.94,0,0,1,.421-1.861,3.019,3.019,0,0,1,1.174-1.238,3.355,3.355,0,0,1,1.7-.436,3.119,3.119,0,0,1,1.7.455,2.646,2.646,0,0,1,1.029,1.164v-1.516h.882v6.891h-.882v-1.527a2.78,2.78,0,0,1-1.044,1.17,3.064,3.064,0,0,1-1.7.459,3.267,3.267,0,0,1-1.685-.439,3.061,3.061,0,0,1-1.174-1.25,3.981,3.981,0,0,1-.424-1.871Zm6.021.016a3.023,3.023,0,0,0-.344-1.465,2.427,2.427,0,0,0-.927-.973,2.541,2.541,0,0,0-1.295-.342,2.625,2.625,0,0,0-1.312.33,2.332,2.332,0,0,0-.913.951,3.11,3.11,0,0,0-.336,1.482,3.16,3.16,0,0,0,.336,1.486,2.348,2.348,0,0,0,.913.971,2.569,2.569,0,0,0,1.313.336,2.523,2.523,0,0,0,1.295-.344,2.409,2.409,0,0,0,.927-.971A3.031,3.031,0,0,0,13183.122,15811.009Z" transform="translate(-13086.196 -15774.211)" fill="#fff"/>
      <path id="_9" data-name="9" d="M13894.4,15810.947a3.9,3.9,0,0,1,.428-1.871,3.034,3.034,0,0,1,1.186-1.238,3.406,3.406,0,0,1,1.73-.437,3.372,3.372,0,0,1,2.1.633,2.863,2.863,0,0,1,1.064,1.715h-.947a1.937,1.937,0,0,0-.762-1.166,2.432,2.432,0,0,0-1.459-.424,2.478,2.478,0,0,0-1.25.316,2.2,2.2,0,0,0-.877.939,3.34,3.34,0,0,0-.322,1.533,3.391,3.391,0,0,0,.322,1.541,2.2,2.2,0,0,0,.877.947,2.476,2.476,0,0,0,1.25.314,2.431,2.431,0,0,0,1.459-.422,1.95,1.95,0,0,0,.762-1.182h.947a2.877,2.877,0,0,1-1.072,1.705,3.325,3.325,0,0,1-2.1.643,3.4,3.4,0,0,1-1.73-.436,3.046,3.046,0,0,1-1.186-1.238A3.905,3.905,0,0,1,13894.4,15810.947Z" transform="translate(-13794.977 -15774.154)" fill="#fff"/>
      <path id="_10" data-name="10" d="M14552.4,15810.643a6.38,6.38,0,0,1-.025.7h-5.717a2.792,2.792,0,0,0,.377,1.336,2.261,2.261,0,0,0,.9.842,2.629,2.629,0,0,0,1.215.281,2.443,2.443,0,0,0,1.445-.416,1.941,1.941,0,0,0,.775-1.121h.932a2.9,2.9,0,0,1-1.078,1.646,3.3,3.3,0,0,1-2.074.637,3.477,3.477,0,0,1-1.744-.436,3.049,3.049,0,0,1-1.205-1.236,3.86,3.86,0,0,1-.437-1.875,3.943,3.943,0,0,1,.432-1.881,2.965,2.965,0,0,1,1.2-1.236,3.534,3.534,0,0,1,1.756-.432,3.355,3.355,0,0,1,1.721.432,3.006,3.006,0,0,1,1.139,1.154A3.3,3.3,0,0,1,14552.4,15810.643Zm-.9-.025a2.435,2.435,0,0,0-.307-1.312,2.1,2.1,0,0,0-.879-.822,2.658,2.658,0,0,0-1.211-.275,2.421,2.421,0,0,0-1.68.629,2.527,2.527,0,0,0-.77,1.781Z" transform="translate(-14438.597 -15774.2)" fill="#fff"/>
    </g>
  </g>
</svg>
