<svg xmlns="http://www.w3.org/2000/svg" width="156.021" height="57.843" viewBox="0 0 156.021 57.843">
  <g id="Group_115" data-name="Group 115" transform="translate(-199 -42)">
    <g id="OBJECTS" transform="translate(-5326.554 -12966.949)">
      <g id="_2343555918544" transform="translate(5525.554 13008.949)">
        <circle id="Ellipse_22" data-name="Ellipse 22" cx="25.164" cy="25.164" r="25.164" transform="translate(13.817 7.515)" fill="#fcbe30"/>
        <g id="Group_99" data-name="Group 99">
          <path id="Path_152" data-name="Path 152" d="M5543.613,13821.9a1.247,1.247,0,1,0,1.226-1.268A1.247,1.247,0,0,0,5543.613,13821.9Zm10.075-.165a1.247,1.247,0,1,0,1.227-1.268A1.247,1.247,0,0,0,5553.688,13821.738Zm-24.265-.331a5.912,5.912,0,0,1,5.771-5.188l29.218-.479a5.911,5.911,0,0,1,5.937,5l4.841,30.9a5.912,5.912,0,0,1-5.743,6.826l-6.508.107a1.446,1.446,0,0,0-.076-.212l-1.34-2.831a1.544,1.544,0,0,1,.734-2.056l2.105-1a1.544,1.544,0,0,0,.269-2.628l-9.835-7.419a1.544,1.544,0,0,0-2.472,1.172l-.49,12.31a1.544,1.544,0,0,0,2.2,1.457l2.106-1a1.544,1.544,0,0,1,2.056.734l.727,1.532-27.359.45a5.912,5.912,0,0,1-5.965-6.634Z" transform="translate(-5525.555 -13803.068)" fill="#0d3745"/>
          <path id="Path_153" data-name="Path 153" d="M6648.562,13020.426l2.992-.05-.051-3.118c-.047-2.893,1.782-5.276,4.078-5.314a3.741,3.741,0,0,1,2.881,1.394,5.908,5.908,0,0,1,1.37,3.784l.052,3.119,2.992-.051-.051-3.117a8.891,8.891,0,0,0-2.1-5.7,6.676,6.676,0,0,0-5.19-2.425c-3.946.065-7.1,3.814-7.022,8.356Z" transform="translate(-6630.873 -13008.949)" fill="#0d3745"/>
        </g>
        <path id="Path_154" data-name="Path 154" d="M8841.745,13695.855c0-9.4-13.674-6.416-13.674-11.764,0-2.177,1.566-3.208,3.667-3.132,2.291.038,3.7,1.413,3.819,3.17h5.882c-.344-4.812-4.087-7.6-9.549-7.6-5.5,0-9.4,2.9-9.4,7.716-.038,9.663,13.712,6.187,13.712,11.954,0,1.91-1.49,3.246-4.011,3.246-2.482,0-3.9-1.412-4.049-3.552h-5.729c.076,5.042,4.354,7.944,9.892,7.944C8838.384,13703.838,8841.745,13700.057,8841.745,13695.855Z" transform="translate(-8770.643 -13666.045)" fill="#0d3745"/>
        <path id="_1" data-name="1" d="M10270.35,13690.125a13.654,13.654,0,1,0-13.636,13.674A13.314,13.314,0,0,0,10270.35,13690.125Zm-21.81,0c0-5.424,3.323-8.822,8.174-8.822,4.813,0,8.136,3.4,8.136,8.822s-3.323,8.9-8.136,8.9C10251.863,13699.024,10248.54,13695.549,10248.54,13690.125Z" transform="translate(-10168.954 -13666.007)" fill="#0d3745"/>
        <path id="_2" data-name="2" d="M12228.248,13727.459h6.762l-11.307-13.443,11-13.216h-6.455l-9.7,11.954V13700.8h-5.348v26.659h5.348v-11.878Z" transform="translate(-12108.172 -13689.935)" fill="#0d3745"/>
        <path id="_3" data-name="3" d="M13748.649,13690.125a13.654,13.654,0,1,0-13.635,13.674A13.313,13.313,0,0,0,13748.649,13690.125Zm-21.809,0c0-5.424,3.323-8.822,8.174-8.822,4.813,0,8.135,3.4,8.135,8.822s-3.322,8.9-8.135,8.9C13730.164,13699.024,13726.841,13695.549,13726.841,13690.125Z" transform="translate(-13592.629 -13666.007)" fill="#0d3745"/>
        <path id="Path_155" data-name="Path 155" d="M8833.868,15662.9v11.515H8832.7v-9.194l-4.105,9.194h-.852l-4.105-9.162v9.162h-1.168V15662.9h1.235l4.455,9.98,4.456-9.98Z" transform="translate(-8770.692 -15621.221)" fill="#0d3745"/>
        <path id="_1-2" data-name="1" d="M9683.2,15812.133a5.2,5.2,0,0,1,.559-2.462,4.016,4.016,0,0,1,1.553-1.636,4.39,4.39,0,0,1,2.244-.575,4.087,4.087,0,0,1,2.244.6,3.5,3.5,0,0,1,1.36,1.535v-2h1.168v9.111h-1.168v-2.02a3.658,3.658,0,0,1-1.377,1.544,4.041,4.041,0,0,1-2.244.609,4.315,4.315,0,0,1-2.228-.584,4.053,4.053,0,0,1-1.553-1.652A5.245,5.245,0,0,1,9683.2,15812.133Zm7.96.017a4.015,4.015,0,0,0-.45-1.936,3.21,3.21,0,0,0-1.227-1.285,3.344,3.344,0,0,0-1.711-.451,3.466,3.466,0,0,0-1.735.435,3.075,3.075,0,0,0-1.21,1.26,4.1,4.1,0,0,0-.442,1.961,4.163,4.163,0,0,0,.442,1.961,3.112,3.112,0,0,0,1.21,1.285,3.41,3.41,0,0,0,1.735.441,3.343,3.343,0,0,0,1.711-.45,3.21,3.21,0,0,0,1.227-1.285A4.015,4.015,0,0,0,9691.159,15812.149Z" transform="translate(-9617.904 -15763.51)" fill="#0d3745"/>
        <path id="_2-2" data-name="2" d="M10435.688,15807.086a2.856,2.856,0,0,1,1.177-1.318,3.769,3.769,0,0,1,1.944-.467v1.218h-.317a2.562,2.562,0,0,0-2.8,2.971v5.09h-1.168v-9.112h1.168Z" transform="translate(-10357.426 -15761.385)" fill="#0d3745"/>
        <path id="_3-2" data-name="3" d="M10824.122,15622.148l-3.755-4.088v4.088h-1.167v-12.35h1.167v7.31l3.672-4.072h1.637l-4.324,4.54,4.357,4.572Z" transform="translate(-10736.064 -15568.953)" fill="#0d3745"/>
        <path id="_4" data-name="4" d="M11304.038,15811.671q0,.6-.033.918h-7.56a3.66,3.66,0,0,0,.5,1.77,2.946,2.946,0,0,0,1.186,1.109,3.458,3.458,0,0,0,1.6.376,3.22,3.22,0,0,0,1.911-.551,2.59,2.59,0,0,0,1.026-1.485h1.234a3.855,3.855,0,0,1-1.427,2.178,4.364,4.364,0,0,1-2.745.843,4.6,4.6,0,0,1-2.3-.576,4.065,4.065,0,0,1-1.594-1.635,5.117,5.117,0,0,1-.576-2.479,5.227,5.227,0,0,1,.567-2.486,3.937,3.937,0,0,1,1.586-1.636,4.685,4.685,0,0,1,2.319-.567,4.453,4.453,0,0,1,2.277.567,3.924,3.924,0,0,1,1.5,1.526A4.358,4.358,0,0,1,11304.038,15811.671Zm-1.185-.033a3.245,3.245,0,0,0-.409-1.735,2.77,2.77,0,0,0-1.159-1.085,3.532,3.532,0,0,0-1.6-.367,3.18,3.18,0,0,0-2.22.835,3.33,3.33,0,0,0-1.018,2.353Z" transform="translate(-11204.647 -15763.499)" fill="#0d3745"/>
        <path id="_5" data-name="5" d="M11933.145,15673.592v5.657a1.619,1.619,0,0,0,.317,1.151,1.565,1.565,0,0,0,1.118.316h1.068v1h-1.252a2.568,2.568,0,0,1-1.836-.576,2.535,2.535,0,0,1-.6-1.894v-5.657h-1.269v-.985h1.269v-2.286h1.185v2.286h2.5v.985Z" transform="translate(-11830.1 -15628.524)" fill="#0d3745"/>
        <path id="_6" data-name="6" d="M12375.96,15656.663a3.152,3.152,0,0,1-.985,2.42,4.2,4.2,0,0,1-2.953.918h-2.354v4.973h-1.168v-11.665h3.521a4.2,4.2,0,0,1,2.945.918A3.158,3.158,0,0,1,12375.96,15656.663Zm-3.938,2.336q2.736,0,2.736-2.336a2.291,2.291,0,0,0-.65-1.77,3.014,3.014,0,0,0-2.086-.6h-2.354V15659Z" transform="translate(-12261.033 -15611.779)" fill="#0d3745"/>
        <path id="_7" data-name="7" d="M12968.967,15609.8v12.35h-1.168v-12.35Z" transform="translate(-12850.92 -15568.953)" fill="#0d3745"/>
        <path id="_8" data-name="8" d="M13177.1,15812.133a5.2,5.2,0,0,1,.559-2.462,4.013,4.013,0,0,1,1.552-1.636,4.393,4.393,0,0,1,2.245-.575,4.09,4.09,0,0,1,2.244.6,3.5,3.5,0,0,1,1.36,1.535v-2h1.168v9.111h-1.168v-2.02a3.671,3.671,0,0,1-1.377,1.544,4.046,4.046,0,0,1-2.245.609,4.317,4.317,0,0,1-2.228-.584,4.051,4.051,0,0,1-1.552-1.652,5.245,5.245,0,0,1-.56-2.47Zm7.96.017a4,4,0,0,0-.451-1.936,3.2,3.2,0,0,0-1.227-1.285,3.338,3.338,0,0,0-1.71-.451,3.47,3.47,0,0,0-1.736.435,3.081,3.081,0,0,0-1.21,1.26,4.108,4.108,0,0,0-.442,1.961,4.174,4.174,0,0,0,.442,1.961,3.118,3.118,0,0,0,1.21,1.285,3.414,3.414,0,0,0,1.736.441,3.337,3.337,0,0,0,1.71-.45,3.2,3.2,0,0,0,1.227-1.285A4,4,0,0,0,13185.06,15812.149Z" transform="translate(-13056.933 -15763.51)" fill="#0d3745"/>
        <path id="_9" data-name="9" d="M13894.4,15812.09a5.175,5.175,0,0,1,.567-2.478,4.04,4.04,0,0,1,1.568-1.636,4.506,4.506,0,0,1,2.287-.576,4.449,4.449,0,0,1,2.778.835,3.781,3.781,0,0,1,1.41,2.27h-1.252a2.561,2.561,0,0,0-1.01-1.544,3.212,3.212,0,0,0-1.927-.559,3.282,3.282,0,0,0-1.652.417,2.919,2.919,0,0,0-1.16,1.243,4.4,4.4,0,0,0-.426,2.027,4.446,4.446,0,0,0,.426,2.036,2.909,2.909,0,0,0,1.16,1.252,3.282,3.282,0,0,0,1.652.417,3.205,3.205,0,0,0,1.927-.559,2.566,2.566,0,0,0,1.01-1.561h1.252a3.824,3.824,0,0,1-1.419,2.253,4.395,4.395,0,0,1-2.77.851,4.506,4.506,0,0,1-2.287-.575,4.04,4.04,0,0,1-1.568-1.636A5.176,5.176,0,0,1,13894.4,15812.09Z" transform="translate(-13762.969 -15763.451)" fill="#0d3745"/>
        <path id="_10" data-name="10" d="M14554.537,15811.671q0,.6-.033.918h-7.56a3.661,3.661,0,0,0,.5,1.77,2.943,2.943,0,0,0,1.185,1.109,3.458,3.458,0,0,0,1.6.376,3.218,3.218,0,0,0,1.911-.551,2.586,2.586,0,0,0,1.026-1.485h1.235a3.857,3.857,0,0,1-1.428,2.178,4.364,4.364,0,0,1-2.745.843,4.6,4.6,0,0,1-2.3-.576,4.065,4.065,0,0,1-1.594-1.635,5.116,5.116,0,0,1-.575-2.479,5.227,5.227,0,0,1,.566-2.486,3.942,3.942,0,0,1,1.586-1.636,4.687,4.687,0,0,1,2.319-.567,4.454,4.454,0,0,1,2.278.567,3.928,3.928,0,0,1,1.5,1.526A4.358,4.358,0,0,1,14554.537,15811.671Zm-1.185-.033a3.236,3.236,0,0,0-.409-1.735,2.758,2.758,0,0,0-1.159-1.085,3.53,3.53,0,0,0-1.6-.367,3.184,3.184,0,0,0-2.22.835,3.33,3.33,0,0,0-1.018,2.353Z" transform="translate(-14404.1 -15763.499)" fill="#0d3745"/>
      </g>
    </g>
  </g>
</svg>
